<svg id="_87_coding_outline" xmlns="http://www.w3.org/2000/svg" viewBox="0 0 500 500" data-imageid="coding-2-37" imageName="Coding 2" class="illustrations_image" style="width: 177px;"><defs><style>.cls-1_coding-2-37{opacity:.14;}.cls-1_coding-2-37,.cls-2_coding-2-37,.cls-3_coding-2-37,.cls-4_coding-2-37,.cls-5_coding-2-37,.cls-6_coding-2-37{fill:none;}.cls-7_coding-2-37{fill:#fff;}.cls-8_coding-2-37{fill:#f4a28c;}.cls-2_coding-2-37{opacity:.58;}.cls-9_coding-2-37{fill:#e6e6e6;}.cls-3_coding-2-37{opacity:.03;}.cls-4_coding-2-37{opacity:.73;}.cls-5_coding-2-37{opacity:.24;}.cls-6_coding-2-37{opacity:.08;}.cls-10_coding-2-37{fill:#24285b;}.cls-11_coding-2-37{fill:#000001;}.cls-12_coding-2-37{fill:#ffd200;}.cls-13_coding-2-37{fill:#68e1fd;}</style></defs><g id="screen_code_coding-2-37"><rect class="cls-10_coding-2-37" x="47.99" y="45.43" width="361.53" height="318.73"/><rect class="cls-13_coding-2-37 targetColor" x="160.69" y="245.59" width="123.86" height="13.86" style="fill: rgb(104, 225, 253);"/><rect class="cls-12_coding-2-37" x="196.21" y="206.99" width="110.73" height="13.86"/><rect class="cls-13_coding-2-37 targetColor" x="196.21" y="279.1" width="147.59" height="13.86" style="fill: rgb(104, 225, 253);"/><rect class="cls-12_coding-2-37" x="251.49" y="315.5" width="147.59" height="13.86"/><rect class="cls-7_coding-2-37" x="114.73" y="279.1" width="55.51" height="13.86"/><rect class="cls-7_coding-2-37" x="170.01" y="315.5" width="55.51" height="13.86"/><rect class="cls-7_coding-2-37" x="79.21" y="245.59" width="55.51" height="13.86"/><circle class="cls-7_coding-2-37" cx="73.24" cy="69.78" r="6.53"/><circle class="cls-13_coding-2-37 targetColor" cx="92.67" cy="69.78" r="6.53" style="fill: rgb(104, 225, 253);"/><circle class="cls-12_coding-2-37" cx="110.98" cy="69.78" r="6.53"/><rect class="cls-7_coding-2-37" x="79.21" y="140.18" width="55.51" height="13.86"/><rect class="cls-7_coding-2-37" x="114.73" y="174.84" width="55.51" height="13.86"/><rect class="cls-12_coding-2-37" x="196.21" y="174.84" width="110.73" height="13.86"/><rect class="cls-7_coding-2-37" x="114.73" y="206.99" width="55.51" height="13.86"/><rect class="cls-13_coding-2-37 targetColor" x="156.91" y="140.18" width="114.35" height="13.86" style="fill: rgb(104, 225, 253);"/><g class="cls-5_coding-2-37"><path class="cls-11_coding-2-37" d="m372.89,164.55s-32.44-13.09-32.87,26.06l-7.16,10.94s-54.66-2.97-68.5,29.2-48.69,105.62,2.82,109.37l27.65,7.68.34,16.36h44.85l57.06-100.86-24.2-98.76Z"/></g><rect class="cls-13_coding-2-37 targetColor" x="295.18" y="140.18" width="81.19" height="13.86" style="fill: rgb(104, 225, 253);"/><rect class="cls-7_coding-2-37" x="301.74" y="66.11" width="82.61" height="6.96"/></g><g id="code_coding-2-37"><rect class="cls-12_coding-2-37" x="13.21" y="329.35" width="89.19" height="61.32"/><path class="cls-7_coding-2-37" d="m45.83,372.05c-.45,0-.9-.15-1.28-.44l-13.37-10.57c-.49-.39-.78-.98-.79-1.61,0-.63.28-1.22.77-1.62l13.37-10.76c.89-.72,2.19-.58,2.9.31.71.89.57,2.19-.31,2.9l-11.35,9.14,11.34,8.96c.9.71,1.05,2.01.34,2.9-.41.52-1.01.78-1.62.78Z"/><path class="cls-7_coding-2-37" d="m70.04,372.05c-.61,0-1.21-.27-1.62-.78-.71-.89-.56-2.19.34-2.9l11.34-8.96-11.36-9.14c-.89-.71-1.03-2.01-.31-2.9.72-.89,2.01-1.03,2.9-.31l13.37,10.76c.49.39.77.99.77,1.62,0,.63-.29,1.22-.79,1.61l-13.37,10.57c-.38.3-.83.44-1.28.44Z"/><path class="cls-7_coding-2-37" d="m52.32,372.05c-.29,0-.58-.06-.86-.19-1.04-.47-1.49-1.7-1.02-2.74l9.74-21.33c.47-1.04,1.7-1.49,2.74-1.02,1.04.47,1.49,1.7,1.02,2.74l-9.74,21.33c-.35.76-1.1,1.21-1.88,1.21Z"/></g><g id="sd_coding-2-37" class="cls-3_coding-2-37"><ellipse class="cls-11_coding-2-37" cx="362.23" cy="434.79" rx="124.55" ry="19.78"/></g><g id="person_coding-2-37"><path class="cls-12_coding-2-37" d="m372.89,164.55s4.47-8.07,13.69-.12c9.22,7.95-4.47,17.15,9.22,26.94,0,0-22.07,11.19-22.91-26.82Z"/><g class="cls-6_coding-2-37"><path class="cls-11_coding-2-37" d="m372.89,164.55s4.47-8.07,13.69-.12c9.22,7.95-4.47,17.15,9.22,26.94,0,0-22.07,11.19-22.91-26.82Z"/></g><path class="cls-13_coding-2-37 targetColor" d="m357.8,181.77s-67.06,6.53-54.49,56.83c12.57,50.3,26.46,83.83,26.46,83.83h80.84s102.27-134.61-52.81-140.65Z" style="fill: rgb(104, 225, 253);"/><g class="cls-6_coding-2-37"><path class="cls-11_coding-2-37" d="m409.49,217.27s-18.16,26.35-11.87,48.15l-17.21,38.56-40.39,29.73,70.59-11.29s23.43-32.6,26.6-49.2c3.16-16.6-27.72-55.95-27.72-55.95Z"/></g><rect class="cls-9_coding-2-37" x="318.7" y="343.87" width="105.61" height="89.68"/><g class="cls-1_coding-2-37"><polygon class="cls-11_coding-2-37" points="362.83 347.8 353.47 415.07 370.02 418.21 366.4 433.55 424.31 433.55 424.31 365.65 420.18 352.52 362.83 347.8"/></g><polygon class="cls-8_coding-2-37" points="402.53 373.11 386.67 427.95 380.41 424.55 386.08 364.16 402.53 373.11"/><path class="cls-13_coding-2-37 targetColor" d="m386.67,427.95s1.08,6.3,5.65,8.51,1.8,8.85-5.01,4.3c-2.6-1.73-4.55-3.37-5.98-4.72-1.7-1.61-3.87-2.52-6.15-3.07-.71-.17-1.34-.7-1.6-1.92-.73-3.49,7.25-6.27,7.25-6.27l5.84,3.18Z" style="fill: rgb(104, 225, 253);"/><path class="cls-10_coding-2-37" d="m372.68,306.6s27.35-1.81,36.42,4.5,0,100.89,0,100.89l-42.08-2.7s9.95-68.9-6.38-80.61,12.05-22.07,12.05-22.07Z"/><path class="cls-7_coding-2-37" d="m357.26,186.51s-8.42,13.24-.17,17.98c8.25,4.74,10.89-.67,10.89-.67,0,0,6.15,7.25,11.64,1.63,5.49-5.62,4.72-16.81-.88-21.97-5.6-5.16-21.48,3.03-21.48,3.03Z"/><path class="cls-8_coding-2-37" d="m359.18,186.94c.36,2.44.66,4.89.73,7.36.11,3.39,1.19,8.42,6.54,9.4,8.24,1.52,10.43-11.5,10.43-11.5,0,0,5.19-12.21-3.73-13.88-8.03-1.51-15.6-2.59-13.96,8.62Z"/><path class="cls-8_coding-2-37" d="m376.36,192.73s.47-3.96,3.92-3.79c3.45.17,2.09,7.56-3.92,3.79Z"/><path class="cls-10_coding-2-37" d="m366.39,167.38s1.75-3.67,6.5-2.83c4.75.84,11.53,3.69,7.3,9.67-4.23,5.98-13.8-6.84-13.8-6.84Z"/><path class="cls-8_coding-2-37" d="m361.17,190.52s1.21-3.8-2-5.07c-3.21-1.28-5.04,6.01,2,5.07Z"/><polygon class="cls-8_coding-2-37" points="406.71 334.66 448.94 373.07 443.13 377.19 391.42 345.49 406.71 334.66"/><path class="cls-13_coding-2-37 targetColor" d="m448.94,373.07s6.14,1.81,10.13-1.32c3.99-3.13,8.74,2.29,1.66,6.39-2.7,1.57-5.03,2.6-6.87,3.29-2.2.81-3.97,2.37-5.47,4.17-.47.56-1.22.89-2.43.59-3.46-.88-2.44-9.27-2.44-9.27l5.43-3.84Z" style="fill: rgb(104, 225, 253);"/><path class="cls-8_coding-2-37" d="m420.18,196.94s33.19,14.55,49.39,66.52c16.21,51.97-10.79,61.34-79.36,49.18l-5.87-11.21s49.68,1.71,59.35-15.06c9.67-16.77-66.21-27.98-23.52-89.43Z"/><path class="cls-8_coding-2-37" d="m318.33,196.94s-33.19,14.55-49.39,66.52c-16.21,51.97,10.79,61.34,79.36,49.18l5.87-11.21s-49.68,1.71-59.35-15.06c-9.67-16.77,66.21-27.98,23.52-89.43Z"/><path class="cls-12_coding-2-37" d="m357.8,181.77s-.06,5.57,1.65,7.16c0,0,10.5,2.09,14.38-6.82,0,0-.9,6.04,3.29,8.49l3.15-1.67s4.24-4.83,1.41-10.91-1.78-8.91-7.44-10.9c-5.66-1.99-19.49,2.03-16.45,14.64Z"/><polygon class="cls-12_coding-2-37" points="343.15 301.83 332.86 257.17 403.86 257.17 392.32 305.34 391.32 314.87 344.65 312.28 343.15 301.83"/><circle class="cls-7_coding-2-37" cx="368.99" cy="278.33" r="6.16"/><path class="cls-10_coding-2-37" d="m327.66,324.13s1.95-20.42,24.68-22.61c22.73-2.19,78.51,40.85,78.51,40.85l-22.95,43.93-80.24-62.17Z"/><path class="cls-10_coding-2-37" d="m327.66,324.13s-9.68,17.29,5.41,19.74c15.09,2.45,54.91,0,54.91,0l-60.32-19.74Z"/></g><g id="plant_coding-2-37"><g class="cls-2_coding-2-37"><path class="cls-13_coding-2-37 targetColor" d="m270.12,411.88s-13.68-3.74-16.65-16.46c0,0,21.19-4.28,21.79,17.59l-5.14-1.13Z" style="fill: rgb(104, 225, 253);"/></g><g class="cls-4_coding-2-37"><path class="cls-13_coding-2-37 targetColor" d="m271.79,410.53s-9.56-15.11-1.15-29.23c0,0,16.11,10.23,8.95,29.26l-7.81-.03Z" style="fill: rgb(104, 225, 253);"/></g><path class="cls-13_coding-2-37 targetColor" d="m274.26,410.54s5.05-15.95,20.31-18.97c0,0,2.86,10.36-9.88,19.02l-10.43-.04Z" style="fill: rgb(104, 225, 253);"/><polygon class="cls-10_coding-2-37" points="264.34 410.18 267.11 429.15 284.57 429.22 287.14 410.28 264.34 410.18"/></g></svg>