<?xml version="1.0" standalone="no"?>
<!DOCTYPE svg PUBLIC "-//W3C//DTD SVG 20010904//EN"
 "http://www.w3.org/TR/2001/REC-SVG-20010904/DTD/svg10.dtd">
<svg version="1.0" xmlns="http://www.w3.org/2000/svg"
 width="1200.000000pt" height="1200.000000pt" viewBox="0 0 1200.000000 1200.000000"
 preserveAspectRatio="xMidYMid meet">

<g transform="translate(0.000000,1200.000000) scale(0.100000,-0.100000)"
fill="#000000" stroke="none">
<path d="M1800 9300 l0 -900 75 0 75 0 0 825 0 825 4050 0 4050 0 0 -825 0
-825 75 0 75 0 0 900 0 900 -4200 0 -4200 0 0 -900z"/>
<path d="M4579 8267 c-18 -12 -44 -40 -56 -62 -21 -36 -23 -53 -23 -187 l0
-148 1500 0 1500 0 0 143 c0 128 -2 147 -22 187 -13 25 -38 55 -57 67 l-34 23
-1387 0 -1387 0 -34 -23z"/>
<path d="M4500 6722 l0 -1029 21 -19 c21 -18 59 -19 1479 -19 1420 0 1458 1
1479 19 l21 19 0 1029 0 1028 -1500 0 -1500 0 0 -1028z m982 501 c33 -32 128
-129 211 -216 l151 -158 -210 -204 c-164 -160 -215 -204 -236 -204 -34 -1 -58
23 -58 59 0 23 28 55 167 189 l166 161 -24 28 c-13 15 -86 90 -161 168 -118
120 -138 145 -138 172 0 31 29 62 58 62 7 0 41 -26 74 -57z m1220 -690 c24
-22 23 -56 -3 -79 -20 -18 -42 -19 -429 -19 -387 0 -409 1 -429 19 -25 23 -27
53 -4 78 15 17 42 18 431 18 373 0 417 -2 434 -17z"/>
<path d="M5400 4329 l0 -510 38 3 37 3 5 255 c4 228 7 259 24 285 51 80 108
115 188 115 67 0 116 -24 143 -70 19 -33 20 -55 23 -313 l3 -278 37 3 37 3 0
275 c0 242 -2 281 -18 322 -34 89 -116 134 -227 126 -69 -5 -123 -31 -172 -81
l-38 -39 0 206 0 206 -40 0 -40 0 0 -511z"/>
<path d="M7032 4333 l3 -508 38 -3 37 -3 0 510 0 511 -40 0 -40 0 2 -507z"/>
<path d="M2942 4303 l3 -478 171 1 c146 1 179 4 235 23 115 39 190 111 241
232 20 49 23 71 23 219 0 138 -3 173 -19 216 -44 119 -139 212 -251 248 -40
12 -93 16 -228 16 l-177 0 2 -477z m392 390 c71 -26 137 -89 171 -165 26 -56
29 -77 33 -187 7 -191 -25 -291 -116 -372 -64 -56 -123 -72 -272 -73 l-125 -1
-3 408 -2 407 132 0 c102 0 145 -4 182 -17z"/>
<path d="M6222 4303 l3 -478 38 -3 37 -3 0 225 0 226 225 0 225 0 0 35 0 35
-225 0 -225 0 0 185 0 185 258 2 257 3 3 33 3 32 -300 0 -301 0 2 -477z"/>
<path d="M4022 4535 c-85 -26 -154 -93 -168 -163 -6 -32 -6 -32 35 -32 31 0
41 4 41 16 0 32 41 83 84 103 55 27 156 28 206 3 56 -28 80 -73 80 -152 l0
-67 -133 -5 c-117 -4 -139 -7 -192 -32 -69 -31 -91 -49 -113 -91 -25 -49 -32
-96 -20 -148 35 -165 281 -209 431 -77 l37 32 0 -32 c0 -50 16 -70 57 -70 l36
0 -8 38 c-4 20 -10 152 -14 292 -7 282 -10 295 -74 344 -71 54 -189 71 -285
41z m278 -442 c0 -103 -16 -131 -101 -178 -43 -23 -67 -29 -119 -29 -106 -1
-166 50 -164 138 2 104 92 153 287 155 l97 1 0 -87z"/>
<path d="M4776 4531 c-62 -25 -94 -55 -118 -110 -27 -59 -18 -119 25 -168 38
-43 82 -64 196 -93 146 -37 201 -78 201 -150 0 -96 -132 -156 -263 -119 -49
13 -102 60 -113 101 -9 29 -14 33 -48 36 l-39 3 6 -38 c10 -59 55 -114 121
-148 52 -26 68 -29 150 -29 94 -1 163 20 209 62 49 44 70 135 46 199 -25 67
-77 98 -236 144 -59 17 -122 40 -139 50 -73 44 -67 142 11 186 44 25 141 31
192 12 40 -15 81 -57 94 -96 10 -30 14 -33 50 -33 43 0 43 0 28 53 -13 48 -61
102 -113 129 -60 31 -193 35 -260 9z"/>
<path d="M7545 4530 c-136 -54 -218 -215 -200 -394 14 -141 83 -250 187 -297
74 -32 194 -33 259 -1 67 32 117 86 153 161 29 61 31 74 31 176 0 79 -5 124
-18 160 -25 72 -83 143 -146 178 -72 41 -189 48 -266 17z m210 -69 c87 -40
136 -128 143 -257 7 -135 -41 -247 -128 -299 -49 -28 -159 -28 -215 1 -146 76
-181 360 -62 500 60 70 176 95 262 55z"/>
<path d="M8145 4528 c2 -7 41 -139 85 -293 45 -154 90 -311 101 -348 20 -67
21 -68 52 -65 l32 3 52 160 c28 88 71 222 95 298 l43 137 96 -297 97 -298 33
0 34 0 102 350 c56 193 102 353 103 358 0 4 -18 7 -40 7 -36 0 -40 -3 -48 -32
-5 -18 -39 -148 -76 -288 -37 -140 -70 -262 -73 -270 -2 -8 -20 35 -38 95 -19
61 -61 196 -93 300 l-60 190 -34 3 -33 3 -88 -283 c-49 -156 -92 -292 -97
-303 l-9 -20 -1 20 c0 11 -35 146 -78 300 l-77 280 -43 3 c-31 2 -41 0 -37
-10z"/>
<path d="M1800 2700 l0 -900 4200 0 4200 0 0 900 0 900 -75 0 -75 0 0 -825 0
-825 -4050 0 -4050 0 0 825 0 825 -75 0 -75 0 0 -900z"/>
</g>
</svg>
